<svg id="Layer_1" data-name="Layer 1" xmlns="http://www.w3.org/2000/svg" viewBox="0 0 298.32 43.17"><defs><style>.cls-1{fill:#0099cd;}.cls-2{fill:#a7dbed;}.cls-3{fill:#fff;}</style></defs><path class="cls-1" d="M32.69,17.34V4.88h7.48V38.34H32.69ZM21.81,19.07V12.2h7.43V31H21.81ZM10.88,16.12V0h7.43V43.17H10.88Z"/><path class="cls-2" d="M0,19.22V12.36H7.42v18.5H0Zm43.63,0V12.36h7.42v18.5H43.63Z"/><path class="cls-3" d="M64.42,4.78H71.8V18.05H85.42V4.78H92.8V38.34H85.42V24.86H71.8V38.34H64.42ZM95.34,25.63v-.1c0-7.38,6-13.38,13.93-13.38s13.83,5.9,13.83,13.27v.11c0,7.37-5.95,13.37-13.93,13.37S95.34,33,95.34,25.63Zm20.59,0v-.1a6.82,6.82,0,0,0-6.76-7.07c-4.17,0-6.66,3.2-6.66,7v.11a6.82,6.82,0,0,0,6.76,7.06C113.44,32.64,115.93,29.44,115.93,25.63Zm7.58,9.3,3.1-4.78a14.33,14.33,0,0,0,8.08,3.05c2.09,0,3.06-.76,3.06-1.93v-.1c0-1.58-2.5-2.09-5.34-3-3.61-1.07-7.68-2.75-7.68-7.73v-.1c0-5.24,4.22-8.14,9.41-8.14a17.89,17.89,0,0,1,9.55,2.95l-2.79,5a15.3,15.3,0,0,0-7-2.39c-1.78,0-2.69.76-2.69,1.78v.1c0,1.42,2.44,2.08,5.23,3.05,3.61,1.22,7.78,2.9,7.78,7.63v.1c0,5.69-4.27,8.29-9.81,8.29a17.69,17.69,0,0,1-10.93-3.87Zm25.17-3.86V18.92h-3.05V12.66h3.05V6.1H156v6.56H162v6.2H156v11c0,1.68.71,2.49,2.34,2.49a7.76,7.76,0,0,0,3.61-.92v5.85a10.65,10.65,0,0,1-5.75,1.48C151.73,38.8,148.68,37,148.68,31.07Zm14.49-5.44v-.1a13.19,13.19,0,0,1,13.47-13.38c4.83,0,7.89,1.63,10.28,4.32l-4.48,4.78c-1.63-1.72-3.25-2.84-5.85-2.84-3.66,0-6.2,3.2-6.2,7v.11c0,3.91,2.54,7.06,6.51,7.06,2.44,0,4.12-1.06,5.9-2.74l4.27,4.32a12.89,12.89,0,0,1-10.48,4.68A13,13,0,0,1,163.17,25.63Z"/><path class="cls-3" d="M187,25.63v-.1c0-7.38,5.95-13.38,13.93-13.38s13.83,5.9,13.83,13.27v.11c0,7.37-5.95,13.37-13.93,13.37S187,33,187,25.63Zm20.59,0v-.1a6.83,6.83,0,0,0-6.76-7.07c-4.17,0-6.66,3.2-6.66,7v.11a6.82,6.82,0,0,0,6.76,7.06C205.07,32.64,207.56,29.44,207.56,25.63Zm9.56-13h7.27v3.66c1.68-2.13,3.86-4.12,7.58-4.12a7.65,7.65,0,0,1,7.22,4.07,10.53,10.53,0,0,1,8.44-4.07c5.39,0,8.69,3.26,8.69,9.46V38.39h-7.27V24c0-3.46-1.52-5.24-4.27-5.24s-4.42,1.78-4.42,5.24V38.34h-7.28V24c0-3.46-1.52-5.24-4.27-5.24s-4.42,1.78-4.42,5.24V38.34h-7.27Zm42,0h7.27v3.66c1.68-2.13,3.86-4.12,7.58-4.12a7.65,7.65,0,0,1,7.22,4.07,10.53,10.53,0,0,1,8.44-4.07c5.39,0,8.69,3.26,8.69,9.46V38.39h-7.27V24c0-3.46-1.52-5.24-4.27-5.24s-4.42,1.78-4.42,5.24V38.34h-7.28V24c0-3.46-1.52-5.24-4.27-5.24s-4.42,1.78-4.42,5.24V38.34h-7.27V12.66Z"/></svg>